<?xml version="1.0" encoding="utf-8"?>
<!-- Generator: Adobe Illustrator 27.1.1, SVG Export Plug-In . SVG Version: 6.00 Build 0)  -->
<svg version="1.1" id="Layer_1" xmlns="http://www.w3.org/2000/svg" xmlns:xlink="http://www.w3.org/1999/xlink" x="0px" y="0px"
	 viewBox="0 0 81.25 81.25" style="enable-background:new 0 0 81.25 81.25;" xml:space="preserve">
<style type="text/css">
	.st0{fill:none;stroke:#FFFFFF;stroke-width:6.25;stroke-linecap:round;stroke-linejoin:round;}
</style>
<g>
	<path class="st0" d="M51.33,53.14l3.57,7.69c0,0,16.07,3.41,16.07,11.53c0,5.77-7.15,5.77-7.15,5.77H44.78l-9.38-5.21"/>
	<path class="st0" d="M29.9,53.14l-3.57,7.69c0,0-16.07,3.41-16.07,11.53c0,5.77,7.15,5.77,7.15,5.77h8.62l9.38-5.21l11.46-7.29"/>
	<path class="st0" d="M3.12,56.98c0,0,8.93-1.92,14.29-3.84c5.35-26.91,21.42-24.99,23.21-24.99c1.79,0,17.86-1.92,23.21,24.99
		c5.36,1.92,14.29,3.84,14.29,3.84 M40.62,19.79c2.21,0,4.33-0.88,5.89-2.44s2.44-3.68,2.44-5.89c0-2.21-0.88-4.33-2.44-5.89
		s-3.68-2.44-5.89-2.44s-4.33,0.88-5.89,2.44s-2.44,3.68-2.44,5.89s0.88,4.33,2.44,5.89S38.41,19.79,40.62,19.79z"/>
</g>
</svg>
