<?xml version="1.0" encoding="utf-8"?>
<!-- Generator: Adobe Illustrator 27.1.1, SVG Export Plug-In . SVG Version: 6.00 Build 0)  -->
<svg version="1.1" id="Layer_1" xmlns="http://www.w3.org/2000/svg" xmlns:xlink="http://www.w3.org/1999/xlink" x="0px" y="0px"
	 viewBox="0 0 81.25 56.25" style="enable-background:new 0 0 81.25 56.25;" xml:space="preserve">
<style type="text/css">
	.st0{fill:none;stroke:#FFFFFF;stroke-width:6.25;stroke-linecap:round;stroke-linejoin:round;}
</style>
<path class="st0" d="M40.62,36.46c2.21,0,4.33-0.88,5.89-2.44s2.44-3.68,2.44-5.89s-0.88-4.33-2.44-5.89s-3.68-2.44-5.89-2.44
	s-4.33,0.88-5.89,2.44s-2.44,3.68-2.44,5.89s0.88,4.33,2.44,5.89S38.41,36.46,40.62,36.46z"/>
<path class="st0" d="M78.12,28.12c-7.87,12.46-22.01,25-37.5,25s-29.63-12.54-37.5-25c9.58-11.84,20.8-25,37.5-25
	S68.54,16.29,78.12,28.12z"/>
</svg>
