<?xml version="1.0" encoding="utf-8"?>
<!-- Generator: Adobe Illustrator 27.1.1, SVG Export Plug-In . SVG Version: 6.00 Build 0)  -->
<svg version="1.1" id="Layer_1" xmlns="http://www.w3.org/2000/svg" xmlns:xlink="http://www.w3.org/1999/xlink" x="0px" y="0px"
	 viewBox="0 0 89.58 89.58" style="enable-background:new 0 0 89.58 89.58;" xml:space="preserve">
<style type="text/css">
	.st0{fill:none;stroke:#FFFFFF;stroke-width:6.25;stroke-linecap:round;stroke-linejoin:round;}
</style>
<path class="st0" d="M23.96,53.12c-1.82,0-3.62,0.4-5.26,1.17c-1.65,0.77-3.11,1.89-4.28,3.28s-2.02,3.02-2.5,4.78
	c-0.48,1.76-0.56,3.59-0.26,5.39c0.31,1.79,1,3.5,2.04,4.99c1.03,1.5,2.38,2.75,3.95,3.67s3.32,1.49,5.13,1.67s3.64-0.05,5.35-0.65
	 M12.56,59.81c-2.49-1.2-4.65-3-6.27-5.24s-2.66-4.85-3.02-7.6c-0.36-2.74-0.03-5.53,0.95-8.12c0.99-2.59,2.6-4.88,4.7-6.69
	 M9.05,31.82c-1.37-2.04-1.97-4.51-1.69-6.95c0.27-2.44,1.41-4.71,3.19-6.4c1.79-1.69,4.11-2.69,6.57-2.83s4.88,0.59,6.85,2.07
	 M24.96,17.98c-0.66-1.41-1-2.96-0.99-4.52s0.37-3.1,1.06-4.5s1.68-2.63,2.91-3.6s2.65-1.65,4.18-1.99c1.52-0.34,3.1-0.33,4.62,0.02
	c1.52,0.35,2.94,1.04,4.16,2.02c1.22,0.98,2.2,2.21,2.88,3.62s1.03,2.95,1.03,4.51 M44.8,13.54v64.58 M44.8,13.54
	c0-1.56,0.35-3.1,1.03-4.51c0.68-1.41,1.66-2.64,2.88-3.62c1.22-0.98,2.64-1.67,4.16-2.02c1.52-0.35,3.1-0.36,4.62-0.02
	s2.95,1.02,4.18,1.99s2.22,2.2,2.91,3.6s1.05,2.94,1.06,4.5s-0.33,3.1-0.99,4.52 M44.8,78.12c0,2.21-0.88,4.33-2.44,5.89
	s-3.68,2.44-5.89,2.44s-4.33-0.88-5.89-2.44s-2.44-3.68-2.44-5.89 M44.8,78.12c0,2.21,0.88,4.33,2.44,5.89s3.68,2.44,5.89,2.44
	 M44.8,23.95c0,3.32,1.32,6.49,3.66,8.84c2.34,2.34,5.52,3.66,8.84,3.66 M80.67,32.16c1.82,1.56,3.28,3.5,4.28,5.68
	s1.52,4.55,1.51,6.95c0,2.93-0.75,5.68-2.08,8.07 M80.55,31.82c1.37-2.04,1.97-4.51,1.69-6.95c-0.27-2.44-1.41-4.71-3.19-6.4
	c-1.79-1.69-4.11-2.69-6.57-2.83c-2.46-0.14-4.88,0.59-6.85,2.07 M80.21,80.2l6.25,6.25 M61.46,71.87c0,2.76,1.1,5.41,3.05,7.37
	s4.6,3.05,7.37,3.05c2.76,0,5.41-1.1,7.37-3.05c1.95-1.95,3.05-4.6,3.05-7.37c0-2.76-1.1-5.41-3.05-7.37
	c-1.95-1.95-4.6-3.05-7.37-3.05c-2.76,0-5.41,1.1-7.37,3.05C62.55,66.45,61.46,69.11,61.46,71.87z"/>
</svg>
