<?xml version="1.0" encoding="utf-8"?>
<!-- Generator: Adobe Illustrator 27.1.1, SVG Export Plug-In . SVG Version: 6.00 Build 0)  -->
<svg version="1.1" id="Layer_1" xmlns="http://www.w3.org/2000/svg" xmlns:xlink="http://www.w3.org/1999/xlink" x="0px" y="0px"
	 viewBox="0 0 81.25 81.25" style="enable-background:new 0 0 81.25 81.25;" xml:space="preserve">
<style type="text/css">
	.st0{fill:none;stroke:#FFFFFF;stroke-width:6.25;stroke-linecap:round;stroke-linejoin:round;}
</style>
<path class="st0" d="M53.12,78.12h-25 M53.12,78.12v-35c0-0.66-0.26-1.3-0.73-1.77c-0.47-0.47-1.1-0.73-1.77-0.73h-20
	c-0.66,0-1.3,0.26-1.77,0.73c-0.47,0.47-0.73,1.1-0.73,1.77v35 M53.12,78.12h22.5c0.66,0,1.3-0.26,1.77-0.73
	c0.47-0.47,0.73-1.1,0.73-1.77v-9.58c0-0.66-0.26-1.3-0.73-1.77c-0.47-0.47-1.1-0.73-1.77-0.73h-20c-0.66,0-1.3,0.26-1.77,0.73
	c-0.47,0.47-0.73,1.1-0.73,1.77V78.12z M28.12,78.12V57.7c0-0.66-0.26-1.3-0.73-1.77c-0.47-0.47-1.1-0.73-1.77-0.73h-20
	c-0.66,0-1.3,0.26-1.77,0.73c-0.47,0.47-0.73,1.1-0.73,1.77v17.92c0,0.66,0.26,1.3,0.73,1.77c0.47,0.47,1.1,0.73,1.77,0.73H28.12z
	 M35.64,11.92l3.79-8.03c0.1-0.23,0.27-0.42,0.48-0.56c0.21-0.14,0.46-0.21,0.71-0.21s0.5,0.07,0.71,0.21
	c0.21,0.14,0.38,0.33,0.48,0.56l3.79,8.03l8.47,1.3c1.09,0.17,1.52,1.57,0.73,2.37l-6.12,6.25l1.45,8.83c0.18,1.13-0.95,2-1.92,1.46
	l-7.58-4.17l-7.58,4.17c-0.97,0.53-2.11-0.33-1.92-1.46l1.45-8.83l-6.12-6.25c-0.79-0.8-0.35-2.2,0.73-2.37L35.64,11.92z"/>
</svg>
